<?xml version="1.0" encoding="UTF-8"?>
<!DOCTYPE svg PUBLIC "-//W3C//DTD SVG 1.1//EN" "http://www.w3.org/Graphics/SVG/1.1/DTD/svg11.dtd">
<svg xmlns="http://www.w3.org/2000/svg" version="1.1" width="2632px" height="443px" style="shape-rendering:geometricPrecision; text-rendering:geometricPrecision; image-rendering:optimizeQuality; fill-rule:evenodd; clip-rule:evenodd" xmlns:xlink="http://www.w3.org/1999/xlink">
<g><path style="opacity:1" fill="#0097fc" d="M 938.5,295.5 C 938.427,297.027 939.094,298.027 940.5,298.5C 941.167,298.5 941.5,298.833 941.5,299.5C 941.427,301.027 942.094,302.027 943.5,302.5C 948.224,310.217 950.557,318.717 950.5,328C 946.442,364.511 934.276,398.011 914,428.5C 908.798,436.879 901.298,441.213 891.5,441.5C 868.993,437.687 846.327,435.52 823.5,435C 732.5,434.667 641.5,434.333 550.5,434C 546.381,433.356 542.715,431.856 539.5,429.5C 539.027,428.094 538.027,427.427 536.5,427.5C 530.43,422.521 527.43,416.021 527.5,408C 527.095,399.851 530.428,393.851 537.5,390C 543.886,386.807 550.22,383.64 556.5,380.5C 559.167,379.833 560.833,378.167 561.5,375.5C 565.793,368.796 568.627,361.463 570,353.5C 576.857,312.128 580.023,270.461 579.5,228.5C 580.006,186.26 577.172,144.26 571,102.5C 569.436,92.8055 566.103,83.8055 561,75.5C 559.59,74.2125 558.09,73.0458 556.5,72C 548.675,69.392 541.009,66.392 533.5,63C 523.349,52.3445 521.849,40.5111 529,27.5C 532.932,21.2818 538.432,17.1151 545.5,15C 550.799,14.07 556.133,13.4034 561.5,13C 644.173,12.8868 726.84,12.2201 809.5,11C 819.212,10.4394 828.879,9.43936 838.5,8C 850.826,5.33384 863.16,2.83384 875.5,0.5C 887.12,0.943176 896.287,5.94318 903,15.5C 922.314,43.0329 928.648,73.3662 922,106.5C 912.925,128.529 897.425,134.696 875.5,125C 868.233,117.069 861.733,108.569 856,99.5C 846.392,87.8997 834.225,80.3997 819.5,77C 793.667,72.776 767.667,71.4427 741.5,73C 731.665,73.409 723.165,76.909 716,83.5C 713.089,89.1445 711.422,95.1445 711,101.5C 710.333,125.167 710.333,148.833 711,172.5C 712.238,182.729 718.071,187.563 728.5,187C 738.167,187.667 747.833,187.667 757.5,187C 765.22,185.614 770.053,181.114 772,173.5C 773.748,163.851 775.415,154.184 777,144.5C 781.809,126.515 793.309,119.349 811.5,123C 823.642,129.502 830.808,139.669 833,153.5C 842.968,193.18 842.968,232.847 833,272.5C 829.955,284.674 824.455,295.508 816.5,305C 807.368,310.985 797.701,311.985 787.5,308C 783.577,304.323 781.077,299.823 780,294.5C 779.526,281.75 775.86,270.083 769,259.5C 756.459,248.793 742.292,245.626 726.5,250C 718.732,254.906 714.899,262.073 715,271.5C 713.461,299.697 715.128,327.697 720,355.5C 722.936,364.242 729.102,369.076 738.5,370C 759.093,372.453 779.76,373.119 800.5,372C 816.053,371.09 831.053,367.756 845.5,362C 859.895,354.939 871.061,344.439 879,330.5C 884.413,320.006 890.079,309.673 896,299.5C 905.519,287.828 917.352,284.661 931.5,290C 934.02,291.697 936.353,293.53 938.5,295.5 Z"/></g>
<g><path style="opacity:1" fill="#0097fd" d="M 1221.5,442.5 C 1204.5,442.5 1187.5,442.5 1170.5,442.5C 1118.65,436.728 1073.32,416.561 1034.5,382C 1016.83,364.506 1002.49,344.672 991.5,322.5C 991.715,320.821 991.048,319.821 989.5,319.5C 967.053,270.041 962.387,219.041 975.5,166.5C 976.924,164.485 977.59,162.152 977.5,159.5C 988.486,121.174 1008.82,88.8406 1038.5,62.5C 1040.75,61.9202 1042.42,60.5869 1043.5,58.5C 1081.07,27.347 1124.41,9.51362 1173.5,5C 1261.12,-4.57673 1331.95,24.9233 1386,93.5C 1418.65,138.117 1433.98,188.117 1432,243.5C 1423.95,317.149 1388.11,372.649 1324.5,410C 1292.14,427.499 1257.81,438.332 1221.5,442.5 Z M 1165.5,93.5 C 1181.11,92.3137 1195.11,96.4804 1207.5,106C 1220.26,116.421 1230.42,128.921 1238,143.5C 1265.68,195.566 1277.35,250.9 1273,309.5C 1263.69,343.488 1241.85,356.655 1207.5,349C 1190.91,341.744 1178.08,330.244 1169,314.5C 1141.26,265.607 1125.42,213.107 1121.5,157C 1121.92,132.827 1131.59,113.494 1150.5,99C 1155.43,96.6369 1160.43,94.8035 1165.5,93.5 Z"/></g>
<g><path style="opacity:1" fill="#0097fc" d="M 1729.5,103.5 C 1729.03,102.094 1728.03,101.427 1726.5,101.5C 1706.91,86.9157 1684.91,80.749 1660.5,83C 1641.08,87.0772 1632.58,98.9106 1635,118.5C 1638.48,129.147 1645.31,136.813 1655.5,141.5C 1655.82,143.048 1656.82,143.715 1658.5,143.5C 1658.83,143.5 1659.17,143.5 1659.5,143.5C 1659.82,145.048 1660.82,145.715 1662.5,145.5C 1687.11,153.424 1711.77,161.258 1736.5,169C 1767.94,178.627 1794.77,195.461 1817,219.5C 1818.72,221.717 1820.22,224.05 1821.5,226.5C 1821.43,228.027 1822.09,229.027 1823.5,229.5C 1836.25,248.755 1842.58,270.088 1842.5,293.5C 1841.63,333.739 1826.29,367.239 1796.5,394C 1760.93,422.806 1720.26,438.973 1674.5,442.5C 1654.17,442.5 1633.83,442.5 1613.5,442.5C 1592.7,440.144 1572.04,436.477 1551.5,431.5C 1549.49,430.076 1547.15,429.41 1544.5,429.5C 1529.04,426.624 1514.37,421.457 1500.5,414C 1491.51,408.515 1484.85,401.015 1480.5,391.5C 1480.71,389.821 1480.05,388.821 1478.5,388.5C 1462.14,356.225 1456.31,322.225 1461,286.5C 1466.69,273.569 1476.53,268.402 1490.5,271C 1500.11,275.269 1507.94,281.769 1514,290.5C 1523,303.833 1532,317.167 1541,330.5C 1568.16,357.668 1601,369.168 1639.5,365C 1653.19,363.74 1664.36,357.906 1673,347.5C 1677.64,337.648 1676.64,328.315 1670,319.5C 1661.16,311.491 1650.99,305.657 1639.5,302C 1610.57,293.693 1582.57,283.026 1555.5,270C 1523,252.167 1497.83,227 1480,194.5C 1458.42,134.568 1472.26,84.4009 1521.5,44C 1564.46,11.8386 1612.8,-1.1614 1666.5,5C 1690.88,8.92779 1714.88,14.4278 1738.5,21.5C 1746.46,18.901 1754.46,16.401 1762.5,14C 1769.09,13.2286 1775.42,14.2286 1781.5,17C 1797.8,27.9706 1810.63,42.1373 1820,59.5C 1830.85,77.3759 1835.52,96.7092 1834,117.5C 1827.5,145.506 1810.33,155.673 1782.5,148C 1778.84,146.503 1775.5,144.503 1772.5,142C 1758.27,128.931 1743.94,116.097 1729.5,103.5 Z"/></g>
<g><path style="opacity:1" fill="#0097fc" d="M 45.5,93.5 C 45.7148,91.8212 45.0481,90.8212 43.5,90.5C 41.3802,86.5456 38.3802,83.3789 34.5,81C 25.005,76.4224 16.005,71.089 7.5,65C 3.64139,61.1025 0.974728,56.6025 -0.5,51.5C -0.5,47.8333 -0.5,44.1667 -0.5,40.5C 3.92323,27.2451 12.9232,18.4118 26.5,14C 37.8567,10.1287 49.5233,7.79534 61.5,7C 86.507,5.11821 111.507,5.11821 136.5,7C 149.902,9.20154 161.569,14.8682 171.5,24C 226.167,72 280.833,120 335.5,168C 342.565,174.032 350.565,178.199 359.5,180.5C 364.071,180.44 367.571,178.44 370,174.5C 371.937,170.354 373.271,166.021 374,161.5C 374.851,143.14 374.518,124.807 373,106.5C 372.294,94.589 367.461,84.7557 358.5,77C 349.556,72.6147 341.39,67.1147 334,60.5C 323.983,39.2171 329.483,23.3838 350.5,13C 358.876,9.7393 367.543,7.7393 376.5,7C 408.24,4.57201 439.907,5.23868 471.5,9C 483.123,10.9746 493.29,15.8079 502,23.5C 513.317,40.908 511.151,56.408 495.5,70C 489.779,73.5272 483.779,76.5272 477.5,79C 472.2,82.1005 468.7,86.6005 467,92.5C 465.198,97.3745 463.865,102.375 463,107.5C 460.464,124.067 459.13,140.734 459,157.5C 458.245,216.003 458.412,274.503 459.5,333C 459.207,350.861 458.374,368.694 457,386.5C 455.983,400.904 452.316,414.571 446,427.5C 436.493,440.779 423.993,444.612 408.5,439C 403.565,436.394 398.898,433.394 394.5,430C 325.131,367.629 255.464,305.629 185.5,244C 166.097,231.618 154.597,236.785 151,259.5C 147.834,286.863 148.167,314.196 152,341.5C 153.864,351.731 158.697,360.231 166.5,367C 172.331,370.081 177.998,373.415 183.5,377C 192.251,384.587 195.418,394.087 193,405.5C 190.548,415.62 184.714,423.12 175.5,428C 163.484,433.838 150.817,437.505 137.5,439C 110.387,442.722 83.3869,442.055 56.5,437C 41.8507,434.463 29.3507,427.963 19,417.5C 9.86492,404.176 10.3649,391.343 20.5,379C 26.8971,374.273 33.5637,369.94 40.5,366C 48.0602,358.76 52.5602,349.927 54,339.5C 59.5171,282.273 60.8505,224.94 58,167.5C 57.1735,151.742 55.5069,136.075 53,120.5C 51.5849,111.17 49.0849,102.17 45.5,93.5 Z"/></g>
<g><path style="opacity:1" fill="#0097fc" d="M 2228.5,238.5 C 2228.43,240.027 2229.09,241.027 2230.5,241.5C 2236.51,247.51 2242.18,253.843 2247.5,260.5C 2247.43,262.027 2248.09,263.027 2249.5,263.5C 2255.51,269.51 2261.18,275.843 2266.5,282.5C 2266.43,284.027 2267.09,285.027 2268.5,285.5C 2274.51,291.51 2280.18,297.843 2285.5,304.5C 2285.43,306.027 2286.09,307.027 2287.5,307.5C 2293.51,313.51 2299.18,319.843 2304.5,326.5C 2304.43,328.027 2305.09,329.027 2306.5,329.5C 2314.32,337.825 2322.32,345.992 2330.5,354C 2341.41,360.19 2352.41,366.19 2363.5,372C 2378.38,385.41 2381.55,401.244 2373,419.5C 2365.82,427.845 2356.65,432.678 2345.5,434C 2301.52,435.581 2257.52,435.914 2213.5,435C 2208.01,434.798 2202.68,433.798 2197.5,432C 2192.04,428.206 2187.21,423.706 2183,418.5C 2153.18,376.666 2119.68,337.833 2082.5,302C 2069.38,294.332 2060.54,297.832 2056,312.5C 2054.02,325.161 2054.02,337.828 2056,350.5C 2057.23,355.518 2059.23,360.185 2062,364.5C 2070,371.167 2078,377.833 2086,384.5C 2097.63,404.777 2092.8,419.944 2071.5,430C 2060.15,434.069 2048.49,436.736 2036.5,438C 1997.2,442.184 1957.87,442.518 1918.5,439C 1908.36,438.17 1898.36,436.503 1888.5,434C 1864.4,424.316 1858.57,408.15 1871,385.5C 1875.76,380.902 1880.92,376.902 1886.5,373.5C 1889.5,372.5 1891.5,370.5 1892.5,367.5C 1897.5,358.17 1900.67,348.17 1902,337.5C 1903.93,323.558 1905.27,309.558 1906,295.5C 1908.41,241.792 1907.74,188.125 1904,134.5C 1903.07,121.235 1900.73,108.235 1897,95.5C 1891.72,85.5537 1883.89,78.387 1873.5,74C 1857.28,57.0396 1857.62,40.3729 1874.5,24C 1890.37,15.3777 1907.37,10.3777 1925.5,9C 1962.51,4.44945 1999.51,4.44945 2036.5,9C 2047.95,10.5245 2058.61,14.1912 2068.5,20C 2081.17,32.3376 2083.67,46.5043 2076,62.5C 2070.3,68.5325 2064.3,74.1991 2058,79.5C 2047.3,101.982 2044.64,125.316 2050,149.5C 2051.8,153.235 2054.8,154.902 2059,154.5C 2062.13,154.671 2064.96,153.838 2067.5,152C 2085.87,134.3 2102.04,114.8 2116,93.5C 2118.97,88.9041 2120.8,83.9041 2121.5,78.5C 2119.51,70.8539 2116.68,63.5206 2113,56.5C 2109.2,39.2159 2115.03,26.3825 2130.5,18C 2141.32,13.1276 2152.66,10.1276 2164.5,9C 2203.88,4.20231 2243.21,4.53564 2282.5,10C 2295.34,11.6699 2306.17,17.1699 2315,26.5C 2323,40.9773 2321.84,54.6439 2311.5,67.5C 2308.52,70.9772 2304.85,73.4772 2300.5,75C 2284.89,76.8915 2269.22,78.2248 2253.5,79C 2248.08,80.0275 2243.08,82.0275 2238.5,85C 2218.76,101.737 2199.93,119.57 2182,138.5C 2170.79,151.434 2169.79,165.101 2179,179.5C 2195.33,199.332 2211.83,218.999 2228.5,238.5 Z"/></g>
<g><path style="opacity:1" fill="#0097fc" d="M 2425.5,96.5 C 2425.71,94.8212 2425.05,93.8212 2423.5,93.5C 2419.47,87.4727 2414.47,82.4727 2408.5,78.5C 2408.03,77.0937 2407.03,76.427 2405.5,76.5C 2405.03,75.0937 2404.03,74.427 2402.5,74.5C 2383.42,63.669 2380.09,49.3357 2392.5,31.5C 2399.33,26.0851 2407,22.2518 2415.5,20C 2474.3,3.69961 2533.63,1.36627 2593.5,13C 2609.51,15.3995 2621.34,23.5661 2629,37.5C 2633.28,49.9185 2630.11,59.7518 2619.5,67C 2610.21,70.89 2602.04,76.39 2595,83.5C 2590.42,91.2281 2587.42,99.5615 2586,108.5C 2584.45,121.122 2583.45,133.789 2583,146.5C 2582.33,190.5 2582.33,234.5 2583,278.5C 2583.42,299.228 2584.75,319.895 2587,340.5C 2587.69,351.177 2592.53,359.344 2601.5,365C 2610.79,368.89 2618.96,374.39 2626,381.5C 2634.39,398.772 2630.56,412.606 2614.5,423C 2599.9,429.818 2584.57,434.151 2568.5,436C 2529.27,441.546 2489.94,442.546 2450.5,439C 2433.26,437.694 2417.26,432.694 2402.5,424C 2387.83,410 2387.83,396 2402.5,382C 2411.58,377.25 2419.08,370.75 2425,362.5C 2426.93,359.052 2428.26,355.385 2429,351.5C 2431.92,327.257 2433.58,302.924 2434,278.5C 2434.67,237.5 2434.67,196.5 2434,155.5C 2433.5,143.125 2432.5,130.792 2431,118.5C 2430.1,110.901 2428.27,103.568 2425.5,96.5 Z"/></g>
<g><path style="opacity:0.945" fill="#085e9b" d="M 1043.5,58.5 C 1042.42,60.5869 1040.75,61.9202 1038.5,62.5C 1039.58,60.4131 1041.25,59.0798 1043.5,58.5 Z"/></g>
<g><path style="opacity:0.584" fill="#114877" d="M 2402.5,74.5 C 2404.03,74.427 2405.03,75.0937 2405.5,76.5C 2403.97,76.573 2402.97,75.9063 2402.5,74.5 Z"/></g>
<g><path style="opacity:0.573" fill="#114977" d="M 2405.5,76.5 C 2407.03,76.427 2408.03,77.0937 2408.5,78.5C 2406.97,78.573 2405.97,77.9063 2405.5,76.5 Z"/></g>
<g><path style="opacity:0.929" fill="#174673" d="M 43.5,90.5 C 45.0481,90.8212 45.7148,91.8212 45.5,93.5C 44.5987,92.7095 43.9321,91.7095 43.5,90.5 Z"/></g>
<g><path style="opacity:0.949" fill="#174775" d="M 2423.5,93.5 C 2425.05,93.8212 2425.71,94.8212 2425.5,96.5C 2424.6,95.7095 2423.93,94.7095 2423.5,93.5 Z"/></g>
<g><path style="opacity:0.596" fill="#124774" d="M 1726.5,101.5 C 1728.03,101.427 1729.03,102.094 1729.5,103.5C 1727.97,103.573 1726.97,102.906 1726.5,101.5 Z"/></g>
<g><path style="opacity:0.937" fill="#174774" d="M 1655.5,141.5 C 1656.71,141.932 1657.71,142.599 1658.5,143.5C 1656.82,143.715 1655.82,143.048 1655.5,141.5 Z"/></g>
<g><path style="opacity:0.91" fill="#164672" d="M 1659.5,143.5 C 1660.71,143.932 1661.71,144.599 1662.5,145.5C 1660.82,145.715 1659.82,145.048 1659.5,143.5 Z"/></g>
<g><path style="opacity:0.753" fill="#08568e" d="M 977.5,159.5 C 977.59,162.152 976.924,164.485 975.5,166.5C 975.41,163.848 976.076,161.515 977.5,159.5 Z"/></g>
<g><path style="opacity:0.549" fill="#114673" d="M 1821.5,226.5 C 1822.91,226.973 1823.57,227.973 1823.5,229.5C 1822.09,229.027 1821.43,228.027 1821.5,226.5 Z"/></g>
<g><path style="opacity:0.78" fill="#114773" d="M 2228.5,238.5 C 2229.91,238.973 2230.57,239.973 2230.5,241.5C 2229.09,241.027 2228.43,240.027 2228.5,238.5 Z"/></g>
<g><path style="opacity:0.78" fill="#114773" d="M 2247.5,260.5 C 2248.91,260.973 2249.57,261.973 2249.5,263.5C 2248.09,263.027 2247.43,262.027 2247.5,260.5 Z"/></g>
<g><path style="opacity:0.78" fill="#114673" d="M 2266.5,282.5 C 2267.91,282.973 2268.57,283.973 2268.5,285.5C 2267.09,285.027 2266.43,284.027 2266.5,282.5 Z"/></g>
<g><path style="opacity:0.769" fill="#15446d" d="M 938.5,295.5 C 939.906,295.973 940.573,296.973 940.5,298.5C 939.094,298.027 938.427,297.027 938.5,295.5 Z"/></g>
<g><path style="opacity:0.58" fill="#114978" d="M 941.5,299.5 C 942.906,299.973 943.573,300.973 943.5,302.5C 942.094,302.027 941.427,301.027 941.5,299.5 Z"/></g>
<g><path style="opacity:0.776" fill="#114673" d="M 2285.5,304.5 C 2286.91,304.973 2287.57,305.973 2287.5,307.5C 2286.09,307.027 2285.43,306.027 2285.5,304.5 Z"/></g>
<g><path style="opacity:0.922" fill="#194571" d="M 989.5,319.5 C 991.048,319.821 991.715,320.821 991.5,322.5C 990.599,321.71 989.932,320.71 989.5,319.5 Z"/></g>
<g><path style="opacity:0.776" fill="#114672" d="M 2304.5,326.5 C 2305.91,326.973 2306.57,327.973 2306.5,329.5C 2305.09,329.027 2304.43,328.027 2304.5,326.5 Z"/></g>
<g><path style="opacity:0.918" fill="#075c99" d="M 1892.5,367.5 C 1891.5,370.5 1889.5,372.5 1886.5,373.5C 1888.17,371.167 1890.17,369.167 1892.5,367.5 Z"/></g>
<g><path style="opacity:0.98" fill="#0d5d9a" d="M 561.5,375.5 C 560.833,378.167 559.167,379.833 556.5,380.5C 557.833,378.5 559.5,376.833 561.5,375.5 Z"/></g>
<g><path style="opacity:0.957" fill="#194976" d="M 1478.5,388.5 C 1480.05,388.821 1480.71,389.821 1480.5,391.5C 1479.6,390.71 1478.93,389.71 1478.5,388.5 Z"/></g>
<g><path style="opacity:0.604" fill="#114978" d="M 536.5,427.5 C 538.027,427.427 539.027,428.094 539.5,429.5C 537.973,429.573 536.973,428.906 536.5,427.5 Z"/></g>
<g><path style="opacity:0.733" fill="#085690" d="M 1544.5,429.5 C 1547.15,429.41 1549.49,430.076 1551.5,431.5C 1548.85,431.59 1546.51,430.924 1544.5,429.5 Z"/></g>
</svg>